{
    "asset" : {
        "generator" : "Khronos glTF Blender I/O v1.7.33",
        "version" : "2.0"
    },
    "scene" : 0,
    "scenes" : [
        {
            "name" : "Scene",
            "nodes" : [
                0
            ]
        }
    ],
    "nodes" : [
        {
            "mesh" : 0,
            "name" : "127_person",
            "scale" : [
                1.8171136379241943,
                1.8171136379241943,
                1.8171136379241943
            ]
        }
    ],
    "meshes" : [
        {
            "name" : "tmp.o.079",
            "primitives" : [
                {
                    "attributes" : {
                        "POSITION" : 0,
                        "NORMAL" : 1,
                        "TEXCOORD_0" : 2
                    },
                    "indices" : 3
                }
            ]
        }
    ],
    "accessors" : [
        {
            "bufferView" : 0,
            "componentType" : 5126,
            "count" : 1480,
            "max" : [
                0.15511488914489746,
                0.8757206201553345,
                0.18505288660526276
            ],
            "min" : [
                -0.1140010878443718,
                0.0014327901881188154,
                -0.09967505931854248
            ],
            "type" : "VEC3"
        },
        {
            "bufferView" : 1,
            "componentType" : 5126,
            "count" : 1480,
            "type" : "VEC3"
        },
        {
            "bufferView" : 2,
            "componentType" : 5126,
            "count" : 1480,
            "type" : "VEC2"
        },
        {
            "bufferView" : 3,
            "componentType" : 5123,
            "count" : 1500,
            "type" : "SCALAR"
        }
    ],
    "bufferViews" : [
        {
            "buffer" : 0,
            "byteLength" : 17760,
            "byteOffset" : 0
        },
        {
            "buffer" : 0,
            "byteLength" : 17760,
            "byteOffset" : 17760
        },
        {
            "buffer" : 0,
            "byteLength" : 11840,
            "byteOffset" : 35520
        },
        {
            "buffer" : 0,
            "byteLength" : 3000,
            "byteOffset" : 47360
        }
    ],
    "buffers" : [
        {
            "byteLength" : 50360,
            "uri" : "person2.bin"
        }
    ]
}
